SubSource-HROTx_VROTdd_SLENn_SANGn.ufo
<glyph name="B" format="2">
  <advance width="382"/>
  <unicode hex="0042"/>
  <outline>
    <contour>
      <point x="166" y="90" type="curve" smooth="yes"/>
      <point x="196" y="90"/>
      <point x="224" y="86"/>
      <point x="246" y="101" type="curve" smooth="yes"/>
      <point x="270" y="119"/>
      <point x="283" y="156"/>
      <point x="283" y="198" type="curve" smooth="yes"/>
      <point x="283" y="245"/>
      <point x="267" y="283"/>
      <point x="235" y="297" type="curve" smooth="yes"/>
      <point x="230" y="299"/>
      <point x="147" y="278"/>
      <point x="162" y="356" type="curve" smooth="yes"/>
      <point x="166" y="377"/>
      <point x="66" y="393"/>
      <point x="202" y="393" type="curve" smooth="yes"/>
      <point x="214" y="393"/>
      <point x="216" y="394"/>
      <point x="226" y="401" type="curve" smooth="yes"/>
      <point x="248" y="418"/>
      <point x="263" y="436"/>
      <point x="263" y="488" type="curve" smooth="yes"/>
      <point x="263" y="549"/>
      <point x="240" y="590"/>
      <point x="193" y="590" type="curve" smooth="yes"/>
      <point x="175" y="590"/>
      <point x="158" y="590"/>
      <point x="146" y="590" type="curve" smooth="yes"/>
      <point x="130" y="590"/>
      <point x="133" y="573"/>
      <point x="133" y="550" type="curve" smooth="yes"/>
      <point x="133" y="407"/>
      <point x="133" y="288"/>
      <point x="133" y="192" type="curve" smooth="yes"/>
      <point x="133" y="132"/>
      <point x="133" y="85"/>
      <point x="133" y="45" type="curve" smooth="yes"/>
      <point x="133" y="-23"/>
      <point x="43" y="-22"/>
      <point x="43" y="45" type="curve" smooth="yes"/>
      <point x="43" y="105"/>
      <point x="43" y="152"/>
      <point x="43" y="192" type="curve" smooth="yes"/>
      <point x="43" y="336"/>
      <point x="43" y="454"/>
      <point x="43" y="550" type="curve" smooth="yes"/>
      <point x="43" y="646"/>
      <point x="77" y="680"/>
      <point x="146" y="680" type="curve" smooth="yes"/>
      <point x="164" y="680"/>
      <point x="181" y="680"/>
      <point x="193" y="680" type="curve" smooth="yes"/>
      <point x="285" y="680"/>
      <point x="353" y="608"/>
      <point x="353" y="488" type="curve" smooth="yes"/>
      <point x="353" y="400"/>
      <point x="318" y="358"/>
      <point x="278" y="329" type="curve" smooth="yes"/>
      <point x="253" y="310"/>
      <point x="234" y="303"/>
      <point x="202" y="303" type="curve" smooth="yes"/>
      <point x="189" y="303"/>
      <point x="291" y="558"/>
      <point x="250" y="340" type="curve" smooth="yes"/>
      <point x="250" y="338"/>
      <point x="69" y="469"/>
      <point x="271" y="379" type="curve" smooth="yes"/>
      <point x="332" y="353"/>
      <point x="373" y="288"/>
      <point x="373" y="198" type="curve" smooth="yes"/>
      <point x="373" y="120"/>
      <point x="343" y="61"/>
      <point x="298" y="29" type="curve" smooth="yes"/>
      <point x="256" y="-2"/>
      <point x="225" y="0"/>
      <point x="166" y="0" type="curve" smooth="yes"/>
      <point x="99" y="0"/>
      <point x="99" y="90"/>
    </contour>
  </outline>
</glyph>
<glyph name="F" format="2">
  <advance width="355"/>
  <unicode hex="0046"/>
  <outline>
    <contour>
      <point x="283" y="285" type="curve" smooth="yes"/>
      <point x="235" y="285"/>
      <point x="180" y="285"/>
      <point x="142" y="285" type="curve" smooth="yes"/>
      <point x="135" y="285"/>
      <point x="133" y="236"/>
      <point x="133" y="223" type="curve" smooth="yes"/>
      <point x="133" y="172"/>
      <point x="133" y="159"/>
      <point x="133" y="111" type="curve" smooth="yes"/>
      <point x="133" y="78"/>
      <point x="43" y="-172"/>
      <point x="43" y="116" type="curve" smooth="yes"/>
      <point x="43" y="323"/>
      <point x="43" y="478"/>
      <point x="43" y="550" type="curve" smooth="yes"/>
      <point x="43" y="642"/>
      <point x="76" y="680"/>
      <point x="148" y="680" type="curve" smooth="yes"/>
      <point x="186" y="680"/>
      <point x="258" y="680"/>
      <point x="299" y="680" type="curve" smooth="yes"/>
      <point x="367" y="680"/>
      <point x="367" y="590"/>
      <point x="299" y="590" type="curve" smooth="yes"/>
      <point x="238" y="590"/>
      <point x="173" y="590"/>
      <point x="148" y="590" type="curve" smooth="yes"/>
      <point x="129" y="590"/>
      <point x="133" y="574"/>
      <point x="133" y="550" type="curve" smooth="yes"/>
      <point x="133" y="443"/>
      <point x="133" y="255"/>
      <point x="133" y="116" type="curve" smooth="yes"/>
      <point x="133" y="83"/>
      <point x="43" y="-173"/>
      <point x="43" y="111" type="curve" smooth="yes"/>
      <point x="43" y="183"/>
      <point x="43" y="189"/>
      <point x="43" y="223" type="curve" smooth="yes"/>
      <point x="43" y="334"/>
      <point x="81" y="375"/>
      <point x="142" y="375" type="curve" smooth="yes"/>
      <point x="198" y="375"/>
      <point x="251" y="375"/>
      <point x="283" y="375" type="curve" smooth="yes"/>
      <point x="351" y="375"/>
      <point x="351" y="285"/>
    </contour>
  </outline>
</glyph>
<glyph name="I" format="2">
  <advance width="190"/>
  <unicode hex="0049"/>
  <outline>
    <contour>
      <point x="50" y="40" type="curve" smooth="yes"/>
      <point x="50" y="92"/>
      <point x="50" y="136"/>
      <point x="50" y="171" type="curve" smooth="yes"/>
      <point x="50" y="312"/>
      <point x="50" y="412"/>
      <point x="50" y="507" type="curve" smooth="yes"/>
      <point x="50" y="557"/>
      <point x="50" y="606"/>
      <point x="50" y="640" type="curve" smooth="yes"/>
      <point x="50" y="708"/>
      <point x="140" y="708"/>
      <point x="140" y="640" type="curve" smooth="yes"/>
      <point x="140" y="590"/>
      <point x="140" y="541"/>
      <point x="140" y="507" type="curve" smooth="yes"/>
      <point x="140" y="366"/>
      <point x="140" y="266"/>
      <point x="140" y="171" type="curve" smooth="yes"/>
      <point x="140" y="119"/>
      <point x="140" y="75"/>
      <point x="140" y="40" type="curve" smooth="yes"/>
      <point x="140" y="-28"/>
      <point x="50" y="-27"/>
    </contour>
  </outline>
</glyph>
<glyph name="O" format="2">
  <advance width="518"/>
  <unicode hex="004F"/>
  <outline>
    <contour>
      <point x="-1805.108905495589" y="-1.4710477351139417" type="curve" smooth="yes"/>
      <point x="-1838.1847404448872" y="7.378229134790978"/>
      <point x="-1865.289106466162" y="22.944618426346896"/>
      <point x="-1893.0923005165632" y="49.39959616300997" type="curve" smooth="yes"/>
      <point x="-1954.3939686988242" y="107.72865950883127"/>
      <point x="-1992.6486914946136" y="211.9418163022066"/>
      <point x="-1992.6646183203923" y="340.994445010304" type="curve" smooth="yes"/>
      <point x="-1992.6906982400271" y="552.3160374076101"/>
      <point x="-1887.9612271442247" y="689.999993983806"/>
      <point x="-1751.1264511711806" y="689.999993983806" type="curve" smooth="yes"/>
      <point x="-1614.8589576927513" y="689.999993983806"/>
      <point x="-1512.3676610997593" y="551.5605287492446"/>
      <point x="-1512.3416757908074" y="341.0055522176776" type="curve" smooth="yes"/>
      <point x="-1512.326171421228" y="215.37602136143764"/>
      <point x="-1548.7834748998807" y="115.50757622220989"/>
      <point x="-1605.933147621324" y="55.07945411547124" type="curve" smooth="yes"/>
      <point x="-1634.555369631018" y="24.815289086945747"/>
      <point x="-1664.0700616439633" y="7.58207584453894"/>
      <point x="-1696.6937739164614" y="-1.3892916590492064" type="curve" smooth="yes"/>
      <point x="-1761.7777161570668" y="-19.287069801084648"/>
      <point x="-1785.6414203464476" y="67.49151985305608"/>
      <point x="-1720.5574781058422" y="85.38929799509151" type="curve" smooth="yes"/>
      <point x="-1702.323578566549" y="90.40353464676794"/>
      <point x="-1687.3192265820228" y="100.00543894690398"/>
      <point x="-1671.3218221065033" y="116.92055088025441" type="curve" smooth="yes"/>
      <point x="-1627.6168628503845" y="163.13268979260658"/>
      <point x="-1602.3298182074086" y="244.91981735321204"/>
      <point x="-1602.341675105418" y="340.994445010304" type="curve" smooth="yes"/>
      <point x="-1602.3591607517321" y="482.67795764455553"/>
      <point x="-1659.4313630192544" y="599.999993983806"/>
      <point x="-1751.1264511711806" y="599.999993983806" type="curve" smooth="yes"/>
      <point x="-1843.7561646896984" y="599.999993983806"/>
      <point x="-1902.6822736952943" y="484.0587959917284"/>
      <point x="-1902.6646190057816" y="341.0055522176776" type="curve" smooth="yes"/>
      <point x="-1902.652703100467" y="244.45279741373855"/>
      <point x="-1876.916975242764" y="158.240215501325"/>
      <point x="-1831.053167613847" y="114.60040895456268" type="curve" smooth="yes"/>
      <point x="-1814.9172527397623" y="99.24694747885027"/>
      <point x="-1801.0439288418427" y="90.60683732005705"/>
      <point x="-1781.8479740114856" y="85.47105407115625" type="curve" smooth="yes"/>
      <point x="-1716.641397656783" y="68.02535545807865"/>
      <point x="-1739.9023291408864" y="-18.916746348191538"/>
    </contour>
  </outline>
</glyph>
<glyph name="P" format="2">
  <advance width="393"/>
  <unicode hex="0050"/>
  <outline>
    <contour>
      <point x="159" y="343" type="curve" smooth="yes"/>
      <point x="178" y="343"/>
      <point x="197" y="343"/>
      <point x="217" y="343" type="curve" smooth="yes"/>
      <point x="264" y="343"/>
      <point x="291" y="400"/>
      <point x="291" y="466" type="curve" smooth="yes"/>
      <point x="291" y="535"/>
      <point x="263" y="590"/>
      <point x="209" y="590" type="curve" smooth="yes"/>
      <point x="183" y="590"/>
      <point x="163" y="590"/>
      <point x="146" y="590" type="curve" smooth="yes"/>
      <point x="131" y="590"/>
      <point x="134" y="571"/>
      <point x="134" y="550" type="curve" smooth="yes"/>
      <point x="134" y="399"/>
      <point x="134" y="270"/>
      <point x="134" y="178" type="curve" smooth="yes"/>
      <point x="134" y="122"/>
      <point x="134" y="78"/>
      <point x="134" y="40" type="curve" smooth="yes"/>
      <point x="134" y="-28"/>
      <point x="44" y="-27"/>
      <point x="44" y="40" type="curve" smooth="yes"/>
      <point x="44" y="96"/>
      <point x="44" y="140"/>
      <point x="44" y="178" type="curve" smooth="yes"/>
      <point x="44" y="314"/>
      <point x="44" y="449"/>
      <point x="44" y="550" type="curve" smooth="yes"/>
      <point x="44" y="646"/>
      <point x="77" y="680"/>
      <point x="146" y="680" type="curve" smooth="yes"/>
      <point x="172" y="680"/>
      <point x="192" y="680"/>
      <point x="209" y="680" type="curve" smooth="yes"/>
      <point x="310" y="680"/>
      <point x="381" y="594"/>
      <point x="381" y="466" type="curve" smooth="yes"/>
      <point x="381" y="336"/>
      <point x="309" y="253"/>
      <point x="217" y="253" type="curve" smooth="yes"/>
      <point x="188" y="253"/>
      <point x="172" y="253"/>
      <point x="159" y="253" type="curve" smooth="yes"/>
      <point x="92" y="253"/>
      <point x="92" y="343"/>
    </contour>
  </outline>
</glyph>
<glyph name="T" format="2">
  <advance width="352"/>
  <unicode hex="0054"/>
  <outline>
    <contour>
      <point x="299" y="590" type="curve" smooth="yes"/>
      <point x="264" y="590"/>
      <point x="153" y="590"/>
      <point x="101" y="590" type="curve" smooth="yes"/>
      <point x="80" y="590"/>
      <point x="-148" y="680"/>
      <point x="95" y="680" type="curve" smooth="yes"/>
      <point x="181" y="680"/>
      <point x="221" y="632"/>
      <point x="221" y="479" type="curve" smooth="yes"/>
      <point x="221" y="372"/>
      <point x="221" y="242"/>
      <point x="221" y="191" type="curve" smooth="yes"/>
      <point x="221" y="118"/>
      <point x="221" y="69"/>
      <point x="221" y="40" type="curve" smooth="yes"/>
      <point x="221" y="-28"/>
      <point x="131" y="-27"/>
      <point x="131" y="40" type="curve" smooth="yes"/>
      <point x="131" y="83"/>
      <point x="131" y="142"/>
      <point x="131" y="191" type="curve" smooth="yes"/>
      <point x="131" y="267"/>
      <point x="131" y="407"/>
      <point x="131" y="479" type="curve" smooth="yes"/>
      <point x="131" y="545"/>
      <point x="132" y="590"/>
      <point x="95" y="590" type="curve" smooth="yes"/>
      <point x="74" y="590"/>
      <point x="-147" y="680"/>
      <point x="101" y="680" type="curve" smooth="yes"/>
      <point x="179" y="680"/>
      <point x="275" y="680"/>
      <point x="299" y="680" type="curve" smooth="yes"/>
      <point x="367" y="680"/>
      <point x="367" y="590"/>
    </contour>
  </outline>
</glyph>
<glyph name="f" format="2">
  <advance width="258"/>
  <unicode hex="0066"/>
  <outline>
    <contour>
      <point x="213" y="639" type="curve" smooth="yes"/>
      <point x="179" y="664"/>
      <point x="161" y="635"/>
      <point x="161" y="584" type="curve" smooth="yes"/>
      <point x="161" y="413"/>
      <point x="161" y="261"/>
      <point x="161" y="195" type="curve" smooth="yes"/>
      <point x="161" y="132"/>
      <point x="161" y="74"/>
      <point x="161" y="40" type="curve" smooth="yes"/>
      <point x="161" y="-28"/>
      <point x="71" y="-27"/>
      <point x="71" y="40" type="curve" smooth="yes"/>
      <point x="71" y="91"/>
      <point x="71" y="152"/>
      <point x="71" y="195" type="curve" smooth="yes"/>
      <point x="71" y="294"/>
      <point x="71" y="470"/>
      <point x="71" y="584" type="curve" smooth="yes"/>
      <point x="71" y="719"/>
      <point x="175" y="777"/>
      <point x="265" y="713" type="curve" smooth="yes"/>
      <point x="320" y="673"/>
      <point x="268" y="600"/>
    </contour>
    <contour>
      <point x="219" y="408" type="curve" smooth="yes"/>
      <point x="190" y="408"/>
      <point x="172" y="408"/>
      <point x="157" y="408" type="curve" smooth="yes"/>
      <point x="124" y="408"/>
      <point x="101" y="408"/>
      <point x="79" y="408" type="curve" smooth="yes"/>
      <point x="62" y="408"/>
      <point x="52" y="408"/>
      <point x="41" y="408" type="curve" smooth="yes"/>
      <point x="-27" y="408"/>
      <point x="-26" y="498"/>
      <point x="41" y="498" type="curve" smooth="yes"/>
      <point x="58" y="498"/>
      <point x="68" y="498"/>
      <point x="79" y="498" type="curve" smooth="yes"/>
      <point x="112" y="498"/>
      <point x="135" y="498"/>
      <point x="157" y="498" type="curve" smooth="yes"/>
      <point x="179" y="498"/>
      <point x="199" y="498"/>
      <point x="219" y="498" type="curve" smooth="yes"/>
      <point x="287" y="498"/>
      <point x="287" y="408"/>
    </contour>
  </outline>
</glyph>
<glyph name="m" format="2">
  <advance width="586"/>
  <unicode hex="006D"/>
  <outline>
    <contour>
      <point x="124" y="458" type="curve" smooth="yes"/>
      <point x="124" y="409"/>
      <point x="124" y="371"/>
      <point x="124" y="338" type="curve" smooth="yes"/>
      <point x="124" y="306"/>
      <point x="124" y="184"/>
      <point x="124" y="128" type="curve" smooth="yes"/>
      <point x="124" y="86"/>
      <point x="34" y="-187"/>
      <point x="34" y="130" type="curve" smooth="yes"/>
      <point x="34" y="188"/>
      <point x="34" y="232"/>
      <point x="34" y="278" type="curve" smooth="yes"/>
      <point x="34" y="430"/>
      <point x="110" y="508"/>
      <point x="202" y="508" type="curve" smooth="yes"/>
      <point x="273" y="508"/>
      <point x="341" y="451"/>
      <point x="341" y="303" type="curve" smooth="yes"/>
      <point x="341" y="257"/>
      <point x="341" y="207"/>
      <point x="341" y="175" type="curve" smooth="yes"/>
      <point x="341" y="101"/>
      <point x="251" y="-229"/>
      <point x="251" y="175" type="curve" smooth="yes"/>
      <point x="251" y="223"/>
      <point x="251" y="239"/>
      <point x="251" y="278" type="curve" smooth="yes"/>
      <point x="251" y="430"/>
      <point x="327" y="508"/>
      <point x="419" y="508" type="curve" smooth="yes"/>
      <point x="491" y="508"/>
      <point x="558" y="451"/>
      <point x="558" y="303" type="curve" smooth="yes"/>
      <point x="558" y="257"/>
      <point x="558" y="207"/>
      <point x="558" y="175" type="curve" smooth="yes"/>
      <point x="558" y="120"/>
      <point x="558" y="77"/>
      <point x="558" y="40" type="curve" smooth="yes"/>
      <point x="558" y="-28"/>
      <point x="468" y="-27"/>
      <point x="468" y="40" type="curve" smooth="yes"/>
      <point x="468" y="95"/>
      <point x="468" y="138"/>
      <point x="468" y="175" type="curve" smooth="yes"/>
      <point x="468" y="223"/>
      <point x="468" y="272"/>
      <point x="468" y="303" type="curve" smooth="yes"/>
      <point x="468" y="371"/>
      <point x="452" y="418"/>
      <point x="419" y="418" type="curve" smooth="yes"/>
      <point x="369" y="418"/>
      <point x="341" y="361"/>
      <point x="341" y="278" type="curve" smooth="yes"/>
      <point x="341" y="220"/>
      <point x="341" y="207"/>
      <point x="341" y="175" type="curve" smooth="yes"/>
      <point x="341" y="101"/>
      <point x="251" y="-229"/>
      <point x="251" y="175" type="curve" smooth="yes"/>
      <point x="251" y="223"/>
      <point x="251" y="272"/>
      <point x="251" y="303" type="curve" smooth="yes"/>
      <point x="251" y="370"/>
      <point x="234" y="418"/>
      <point x="202" y="418" type="curve" smooth="yes"/>
      <point x="152" y="418"/>
      <point x="124" y="361"/>
      <point x="124" y="278" type="curve" smooth="yes"/>
      <point x="124" y="210"/>
      <point x="124" y="169"/>
      <point x="124" y="130" type="curve" smooth="yes"/>
      <point x="124" y="87"/>
      <point x="34" y="-187"/>
      <point x="34" y="128" type="curve" smooth="yes"/>
      <point x="34" y="212"/>
      <point x="34" y="317"/>
      <point x="34" y="338" type="curve" smooth="yes"/>
      <point x="34" y="387"/>
      <point x="34" y="425"/>
      <point x="34" y="458" type="curve" smooth="yes"/>
      <point x="34" y="526"/>
      <point x="124" y="526"/>
    </contour>
  </outline>
</glyph>
<glyph name="n" format="2">
  <advance width="402"/>
  <unicode hex="006E"/>
  <outline>
    <contour>
      <point x="285" y="40" type="curve" smooth="yes"/>
      <point x="285" y="95"/>
      <point x="285" y="138"/>
      <point x="285" y="175" type="curve" smooth="yes"/>
      <point x="285" y="223"/>
      <point x="285" y="262"/>
      <point x="285" y="293" type="curve" smooth="yes"/>
      <point x="285" y="367"/>
      <point x="263" y="418"/>
      <point x="220" y="418" type="curve" smooth="yes"/>
      <point x="160" y="418"/>
      <point x="124" y="355"/>
      <point x="124" y="258" type="curve" smooth="yes"/>
      <point x="124" y="190"/>
      <point x="124" y="169"/>
      <point x="124" y="130" type="curve" smooth="yes"/>
      <point x="124" y="88"/>
      <point x="34" y="-186"/>
      <point x="34" y="130" type="curve" smooth="yes"/>
      <point x="34" y="214"/>
      <point x="34" y="317"/>
      <point x="34" y="338" type="curve" smooth="yes"/>
      <point x="34" y="387"/>
      <point x="34" y="425"/>
      <point x="34" y="458" type="curve" smooth="yes"/>
      <point x="34" y="526"/>
      <point x="124" y="526"/>
      <point x="124" y="458" type="curve" smooth="yes"/>
      <point x="124" y="409"/>
      <point x="124" y="371"/>
      <point x="124" y="338" type="curve" smooth="yes"/>
      <point x="124" y="306"/>
      <point x="124" y="186"/>
      <point x="124" y="130" type="curve" smooth="yes"/>
      <point x="124" y="88"/>
      <point x="34" y="-186"/>
      <point x="34" y="130" type="curve" smooth="yes"/>
      <point x="34" y="188"/>
      <point x="34" y="212"/>
      <point x="34" y="258" type="curve" smooth="yes"/>
      <point x="34" y="422"/>
      <point x="118" y="508"/>
      <point x="220" y="508" type="curve" smooth="yes"/>
      <point x="305" y="508"/>
      <point x="375" y="438"/>
      <point x="375" y="293" type="curve" smooth="yes"/>
      <point x="375" y="247"/>
      <point x="375" y="207"/>
      <point x="375" y="175" type="curve" smooth="yes"/>
      <point x="375" y="120"/>
      <point x="375" y="77"/>
      <point x="375" y="40" type="curve" smooth="yes"/>
      <point x="375" y="-28"/>
      <point x="285" y="-27"/>
    </contour>
  </outline>
</glyph>
<glyph name="o" format="2">
  <advance width="409"/>
  <unicode hex="006F"/>
  <outline>
    <contour>
      <point x="142.22649822373856" y="1.4537285890099625" type="curve" smooth="yes"/>
      <point x="100.52515545683303" y="21.52899661170205"/>
      <point x="69.09275609193548" y="50.504992615092206"/>
      <point x="45.37356405182367" y="100.80782761721909" type="curve" smooth="yes"/>
      <point x="26.423080548765917" y="140.99735191689877"/>
      <point x="14.903890959532962" y="191.43217893952394"/>
      <point x="14.896787003459949" y="248.99444641154412" type="curve" smooth="yes"/>
      <point x="14.877527992680417" y="405.04725956854065"/>
      <point x="99.11347824335438" y="507.9999967558245"/>
      <point x="204.12015955215605" y="507.9999967558245" type="curve" smooth="yes"/>
      <point x="309.90945179851616" y="507.9999967558245"/>
      <point x="394.0842203225068" y="404.9002809019251"/>
      <point x="394.1034598233687" y="249.00555361891767" type="curve" smooth="yes"/>
      <point x="394.1104357307275" y="192.4808452574656"/>
      <point x="382.84418847920483" y="142.25125449610798"/>
      <point x="363.6135190585673" y="101.71293269852673" type="curve" smooth="yes"/>
      <point x="339.47492640049256" y="50.82869068334011"/>
      <point x="310.1256988438442" y="22.615443325651135"/>
      <point x="266.0998005229582" y="1.445099724243427" type="curve" smooth="yes"/>
      <point x="205.26744535729165" y="-27.80681585402599"/>
      <point x="166.2648912529325" y="53.302991033529466"/>
      <point x="227.09724641859904" y="82.55490661179888" type="curve" smooth="yes"/>
      <point x="253.754317040341" y="95.37325594691151"/>
      <point x="267.68351034213055" y="109.47736865447196"/>
      <point x="282.2990932998212" y="140.28707123103797" type="curve" smooth="yes"/>
      <point x="296.3878234651935" y="169.98616618559197"/>
      <point x="304.10857118245764" y="207.58344056656594"/>
      <point x="304.1034605087579" y="248.9944464115441" type="curve" smooth="yes"/>
      <point x="304.09231652074476" y="339.2924736117576"/>
      <point x="265.3958970657902" y="417.9999967558245"/>
      <point x="204.12015955215605" y="417.9999967558245" type="curve" smooth="yes"/>
      <point x="143.54056847312455" y="417.9999967558245"/>
      <point x="104.88567556794447" y="339.0342593160567"/>
      <point x="104.89678631807074" y="249.00555361891765" type="curve" smooth="yes"/>
      <point x="104.90201434824554" y="206.64362623910438"/>
      <point x="112.83148031400361" y="168.76894224487717"/>
      <point x="126.77775173840666" y="139.19217634280736" type="curve" smooth="yes"/>
      <point x="140.85538107252754" y="109.33683116840885"/>
      <point x="156.51466645139865" y="94.46119380018712"/>
      <point x="181.26492123304726" y="82.54627774703235" type="curve" smooth="yes"/>
      <point x="242.08433310156408" y="53.26746049005085"/>
      <point x="203.04591009225538" y="-27.82508866797153"/>
    </contour>
  </outline>
</glyph>
<glyph name="q" format="2">
  <advance width="412"/>
  <unicode hex="0071"/>
  <outline>
    <contour>
      <point x="290" y="-125" type="curve" smooth="yes"/>
      <point x="290" y="-77"/>
      <point x="290" y="-40"/>
      <point x="290" y="-8" type="curve" smooth="yes"/>
      <point x="290" y="54"/>
      <point x="290" y="150"/>
      <point x="290" y="220" type="curve" smooth="yes"/>
      <point x="290" y="345"/>
      <point x="257" y="418"/>
      <point x="197" y="418" type="curve" smooth="yes"/>
      <point x="142" y="418"/>
      <point x="104" y="337"/>
      <point x="104" y="248" type="curve" smooth="yes"/>
      <point x="104" y="159"/>
      <point x="140" y="79"/>
      <point x="197" y="79" type="curve" smooth="yes"/>
      <point x="253" y="79"/>
      <point x="290" y="159"/>
      <point x="290" y="248" type="curve" smooth="yes"/>
      <point x="290" y="358"/>
      <point x="290" y="415"/>
      <point x="290" y="458" type="curve" smooth="yes"/>
      <point x="290" y="526"/>
      <point x="380" y="526"/>
      <point x="380" y="458" type="curve" smooth="yes"/>
      <point x="380" y="395"/>
      <point x="380" y="322"/>
      <point x="380" y="248" type="curve" smooth="yes"/>
      <point x="380" y="90"/>
      <point x="297" y="-11"/>
      <point x="197" y="-11" type="curve" smooth="yes"/>
      <point x="96" y="-11"/>
      <point x="14" y="90"/>
      <point x="14" y="248" type="curve" smooth="yes"/>
      <point x="14" y="407"/>
      <point x="98" y="508"/>
      <point x="197" y="508" type="curve" smooth="yes"/>
      <point x="295" y="508"/>
      <point x="380" y="426"/>
      <point x="380" y="220" type="curve" smooth="yes"/>
      <point x="380" y="115"/>
      <point x="380" y="34"/>
      <point x="380" y="-8" type="curve" smooth="yes"/>
      <point x="380" y="-56"/>
      <point x="380" y="-93"/>
      <point x="380" y="-125" type="curve" smooth="yes"/>
      <point x="380" y="-192"/>
      <point x="290" y="-192"/>
    </contour>
  </outline>
</glyph>
<glyph name="s" format="2">
  <advance width="326"/>
  <unicode hex="0073"/>
  <outline>
    <contour>
      <point x="226" y="395" type="curve" smooth="yes"/>
      <point x="204" y="410"/>
      <point x="181" y="418"/>
      <point x="162" y="418" type="curve" smooth="yes"/>
      <point x="132" y="417"/>
      <point x="113" y="399"/>
      <point x="113" y="361" type="curve" smooth="yes"/>
      <point x="113" y="320"/>
      <point x="153" y="306"/>
      <point x="183" y="292" type="curve" smooth="yes"/>
      <point x="250" y="260"/>
      <point x="311" y="225"/>
      <point x="311" y="132" type="curve" smooth="yes"/>
      <point x="311" y="42"/>
      <point x="248" y="-11"/>
      <point x="172" y="-11" type="curve" smooth="yes"/>
      <point x="130" y="-11"/>
      <point x="84" y="6"/>
      <point x="39" y="40" type="curve" smooth="yes"/>
      <point x="-15" y="81"/>
      <point x="39" y="153"/>
      <point x="93" y="112" type="curve" smooth="yes"/>
      <point x="119" y="92"/>
      <point x="148" y="79"/>
      <point x="172" y="79" type="curve" smooth="yes"/>
      <point x="202" y="79"/>
      <point x="221" y="96"/>
      <point x="221" y="132" type="curve" smooth="yes"/>
      <point x="221" y="179"/>
      <point x="179" y="194"/>
      <point x="145" y="210" type="curve" smooth="yes"/>
      <point x="81" y="241"/>
      <point x="23" y="274"/>
      <point x="23" y="361" type="curve" smooth="yes"/>
      <point x="23" y="453"/>
      <point x="86" y="507"/>
      <point x="162" y="508" type="curve" smooth="yes"/>
      <point x="197" y="508"/>
      <point x="236" y="496"/>
      <point x="276" y="469" type="curve" smooth="yes"/>
      <point x="332" y="431"/>
      <point x="282" y="357"/>
    </contour>
  </outline>
</glyph>
<glyph name="w" format="2">
  <advance width="513"/>
  <unicode hex="0077"/>
  <outline>
    <contour>
      <point x="94" y="468" type="curve" smooth="yes"/>
      <point x="104" y="427"/>
      <point x="114" y="384"/>
      <point x="125" y="342" type="curve" smooth="yes"/>
      <point x="137" y="292"/>
      <point x="149" y="240"/>
      <point x="163" y="184" type="curve" smooth="yes"/>
      <point x="169" y="158"/>
      <point x="172" y="149"/>
      <point x="177" y="127" type="curve" smooth="yes"/>
      <point x="179" y="120"/>
      <point x="135" y="120"/>
      <point x="137" y="128" type="curve" smooth="yes"/>
      <point x="142" y="148"/>
      <point x="144" y="159"/>
      <point x="149" y="180" type="curve" smooth="yes"/>
      <point x="161" y="231"/>
      <point x="171" y="280"/>
      <point x="182" y="330" type="curve" smooth="yes"/>
      <point x="187" y="354"/>
      <point x="189" y="364"/>
      <point x="195" y="394" type="curve" smooth="yes"/>
      <point x="230" y="555"/>
      <point x="279" y="555"/>
      <point x="316" y="396" type="curve" smooth="yes"/>
      <point x="323" y="368"/>
      <point x="326" y="356"/>
      <point x="331" y="333" type="curve" smooth="yes"/>
      <point x="344" y="279"/>
      <point x="354" y="230"/>
      <point x="364" y="182" type="curve" smooth="yes"/>
      <point x="369" y="156"/>
      <point x="371" y="147"/>
      <point x="376" y="125" type="curve" smooth="yes"/>
      <point x="378" y="117"/>
      <point x="334" y="117"/>
      <point x="336" y="125" type="curve" smooth="yes"/>
      <point x="342" y="148"/>
      <point x="344" y="157"/>
      <point x="351" y="186" type="curve" smooth="yes"/>
      <point x="364" y="241"/>
      <point x="373" y="284"/>
      <point x="388" y="342" type="curve" smooth="yes"/>
      <point x="397" y="377"/>
      <point x="409" y="427"/>
      <point x="419" y="468" type="curve" smooth="yes"/>
      <point x="435" y="534"/>
      <point x="522" y="513"/>
      <point x="507" y="448" type="curve" smooth="yes"/>
      <point x="497" y="405"/>
      <point x="485" y="355"/>
      <point x="476" y="320" type="curve" smooth="yes"/>
      <point x="461" y="262"/>
      <point x="452" y="219"/>
      <point x="439" y="164" type="curve" smooth="yes"/>
      <point x="432" y="135"/>
      <point x="430" y="126"/>
      <point x="424" y="103" type="curve" smooth="yes"/>
      <point x="383" y="-58"/>
      <point x="321" y="-47"/>
      <point x="288" y="105" type="curve" smooth="yes"/>
      <point x="283" y="129"/>
      <point x="281" y="138"/>
      <point x="276" y="164" type="curve" smooth="yes"/>
      <point x="266" y="210"/>
      <point x="256" y="259"/>
      <point x="243" y="313" type="curve" smooth="yes"/>
      <point x="238" y="336"/>
      <point x="235" y="348"/>
      <point x="228" y="376" type="curve" smooth="yes"/>
      <point x="226" y="383"/>
      <point x="285" y="383"/>
      <point x="283" y="376" type="curve" smooth="yes"/>
      <point x="277" y="346"/>
      <point x="275" y="336"/>
      <point x="270" y="312" type="curve" smooth="yes"/>
      <point x="259" y="260"/>
      <point x="249" y="211"/>
      <point x="237" y="160" type="curve" smooth="yes"/>
      <point x="232" y="137"/>
      <point x="230" y="128"/>
      <point x="225" y="108" type="curve" smooth="yes"/>
      <point x="188" y="-54"/>
      <point x="132" y="-62"/>
      <point x="89" y="107" type="curve" smooth="yes"/>
      <point x="84" y="127"/>
      <point x="81" y="136"/>
      <point x="75" y="162" type="curve" smooth="yes"/>
      <point x="61" y="218"/>
      <point x="49" y="270"/>
      <point x="37" y="320" type="curve" smooth="yes"/>
      <point x="26" y="362"/>
      <point x="16" y="405"/>
      <point x="6" y="448" type="curve" smooth="yes"/>
      <point x="-9" y="513"/>
      <point x="78" y="534"/>
    </contour>
  </outline>
</glyph>
<glyph name="registered" format="2">
  <advance width="456"/>
  <unicode hex="00AE"/>
  <outline>
    <contour>
      <point x="163" y="119" type="curve" smooth="yes"/>
      <point x="74" y="153"/>
      <point x="10" y="257"/>
      <point x="10" y="398" type="curve" smooth="yes"/>
      <point x="10" y="571"/>
      <point x="106" y="689"/>
      <point x="228" y="689" type="curve" smooth="yes"/>
      <point x="350" y="689"/>
      <point x="445" y="571"/>
      <point x="446" y="398" type="curve" smooth="yes"/>
      <point x="446" y="259"/>
      <point x="383" y="155"/>
      <point x="297" y="120" type="curve" smooth="yes"/>
      <point x="234" y="95"/>
      <point x="201" y="179"/>
      <point x="263" y="204" type="curve" smooth="yes"/>
      <point x="320" y="227"/>
      <point x="356" y="306"/>
      <point x="356" y="398" type="curve"/>
      <point x="355" y="507"/>
      <point x="305" y="599"/>
      <point x="228" y="599" type="curve" smooth="yes"/>
      <point x="151" y="599"/>
      <point x="100" y="508"/>
      <point x="100" y="398" type="curve" smooth="yes"/>
      <point x="100" y="305"/>
      <point x="136" y="225"/>
      <point x="195" y="203" type="curve" smooth="yes"/>
      <point x="258" y="179"/>
      <point x="226" y="95"/>
    </contour>
    <contour>
      <point x="133" y="301" type="curve" smooth="yes"/>
      <point x="133" y="350"/>
      <point x="133" y="388"/>
      <point x="133" y="422" type="curve" smooth="yes"/>
      <point x="133" y="515"/>
      <point x="172" y="544"/>
      <point x="224" y="544" type="curve" smooth="yes"/>
      <point x="280" y="544"/>
      <point x="322" y="499"/>
      <point x="322" y="436" type="curve" smooth="yes"/>
      <point x="322" y="378"/>
      <point x="296" y="353"/>
      <point x="275" y="337" type="curve" smooth="yes"/>
      <point x="166" y="256"/>
      <point x="159" y="419"/>
      <point x="236" y="419" type="curve" smooth="yes"/>
      <point x="259" y="419"/>
      <point x="284" y="423"/>
      <point x="330" y="319" type="curve" smooth="yes"/>
      <point x="357" y="257"/>
      <point x="275" y="221"/>
      <point x="248" y="283" type="curve" smooth="yes"/>
      <point x="246" y="288"/>
      <point x="237" y="329"/>
      <point x="236" y="329" type="curve" smooth="yes"/>
      <point x="235" y="329"/>
      <point x="220" y="409"/>
      <point x="223" y="411" type="curve" smooth="yes"/>
      <point x="229" y="415"/>
      <point x="232" y="419"/>
      <point x="232" y="436" type="curve" smooth="yes"/>
      <point x="232" y="443"/>
      <point x="230" y="454"/>
      <point x="224" y="454" type="curve" smooth="yes"/>
      <point x="222" y="454"/>
      <point x="223" y="426"/>
      <point x="223" y="422" type="curve" smooth="yes"/>
      <point x="223" y="372"/>
      <point x="223" y="334"/>
      <point x="223" y="301" type="curve" smooth="yes"/>
      <point x="223" y="234"/>
      <point x="133" y="234"/>
    </contour>
  </outline>
</glyph>
<glyph name="germandbls" format="2">
  <advance width="420"/>
  <unicode hex="00DF"/>
  <outline>
    <contour>
      <point x="53" y="40" type="curve" smooth="yes"/>
      <point x="53" y="540" type="line" smooth="yes"/>
      <point x="53" y="664"/>
      <point x="117" y="738"/>
      <point x="205" y="738" type="curve" smooth="yes"/>
      <point x="287" y="738"/>
      <point x="355" y="663"/>
      <point x="355" y="542" type="curve" smooth="yes"/>
      <point x="355" y="430"/>
      <point x="278" y="364"/>
      <point x="195" y="342" type="curve"/>
      <point x="181" y="431" type="line"/>
      <point x="311" y="438"/>
      <point x="392" y="353"/>
      <point x="392" y="215" type="curve" smooth="yes"/>
      <point x="392" y="65"/>
      <point x="302" y="-39"/>
      <point x="172" y="-4" type="curve" smooth="yes"/>
      <point x="107" y="13"/>
      <point x="130" y="100"/>
      <point x="196" y="82" type="curve" smooth="yes"/>
      <point x="267" y="63"/>
      <point x="302" y="132"/>
      <point x="302" y="215" type="curve" smooth="yes"/>
      <point x="302" y="299"/>
      <point x="265" y="346"/>
      <point x="187" y="341" type="curve" smooth="yes"/>
      <point x="132" y="338"/>
      <point x="120" y="416"/>
      <point x="173" y="430" type="curve" smooth="yes"/>
      <point x="222" y="442"/>
      <point x="265" y="476"/>
      <point x="265" y="542" type="curve" smooth="yes"/>
      <point x="265" y="598"/>
      <point x="243" y="648"/>
      <point x="205" y="648" type="curve" smooth="yes"/>
      <point x="162" y="648"/>
      <point x="143" y="600"/>
      <point x="143" y="540" type="curve" smooth="yes"/>
      <point x="143" y="40" type="line" smooth="yes"/>
      <point x="143" y="-28"/>
      <point x="53" y="-27"/>
    </contour>
  </outline>
</glyph>
<glyph name="ring" format="2">
  <advance width="296"/>
  <unicode hex="02DA"/>
  <outline>
    <contour>
      <point x="80" y="556" type="curve" smooth="yes"/>
      <point x="56" y="578"/>
      <point x="41" y="613"/>
      <point x="41" y="660" type="curve" smooth="yes"/>
      <point x="41" y="737"/>
      <point x="88" y="784"/>
      <point x="147" y="784" type="curve" smooth="yes"/>
      <point x="208" y="784"/>
      <point x="256" y="735"/>
      <point x="256" y="660" type="curve" smooth="yes"/>
      <point x="256" y="614"/>
      <point x="240" y="577"/>
      <point x="214" y="555" type="curve" smooth="yes"/>
      <point x="162" y="512"/>
      <point x="104" y="582"/>
      <point x="156" y="625" type="curve" smooth="yes"/>
      <point x="163" y="630"/>
      <point x="166" y="648"/>
      <point x="166" y="660" type="curve" smooth="yes"/>
      <point x="166" y="677"/>
      <point x="161" y="694"/>
      <point x="147" y="694" type="curve" smooth="yes"/>
      <point x="135" y="694"/>
      <point x="131" y="676"/>
      <point x="131" y="660" type="curve" smooth="yes"/>
      <point x="131" y="648"/>
      <point x="133" y="629"/>
      <point x="140" y="624" type="curve" smooth="yes"/>
      <point x="190" y="579"/>
      <point x="131" y="512"/>
    </contour>
  </outline>
</glyph>
<glyph name="Euro" format="2">
  <advance width="428"/>
  <unicode hex="20AC"/>
  <outline>
    <contour>
      <point x="392" y="52" type="curve" smooth="yes"/>
      <point x="353" y="32"/>
      <point x="315" y="23"/>
      <point x="281" y="23" type="curve" smooth="yes"/>
      <point x="156" y="23"/>
      <point x="59" y="137"/>
      <point x="59" y="340" type="curve" smooth="yes"/>
      <point x="59" y="541"/>
      <point x="154" y="657"/>
      <point x="278" y="657" type="curve" smooth="yes"/>
      <point x="313" y="657"/>
      <point x="350" y="648"/>
      <point x="391" y="629" type="curve" smooth="yes"/>
      <point x="452" y="600"/>
      <point x="414" y="519"/>
      <point x="353" y="547" type="curve" smooth="yes"/>
      <point x="326" y="560"/>
      <point x="301" y="567"/>
      <point x="278" y="567" type="curve" smooth="yes"/>
      <point x="197" y="567"/>
      <point x="149" y="471"/>
      <point x="149" y="340" type="curve" smooth="yes"/>
      <point x="149" y="206"/>
      <point x="199" y="113"/>
      <point x="281" y="113" type="curve" smooth="yes"/>
      <point x="303" y="113"/>
      <point x="327" y="120"/>
      <point x="352" y="132" type="curve" smooth="yes"/>
      <point x="412" y="162"/>
      <point x="452" y="82"/>
    </contour>
    <contour>
      <point x="49" y="465" type="curve" smooth="yes"/>
      <point x="84" y="465"/>
      <point x="119" y="465"/>
      <point x="142" y="465" type="curve" smooth="yes"/>
      <point x="193" y="465"/>
      <point x="187" y="465"/>
      <point x="220" y="465" type="curve" smooth="yes"/>
      <point x="261" y="465"/>
      <point x="294" y="465"/>
      <point x="322" y="465" type="curve" smooth="yes"/>
      <point x="390" y="465"/>
      <point x="390" y="375"/>
      <point x="322" y="375" type="curve" smooth="yes"/>
      <point x="281" y="375"/>
      <point x="248" y="375"/>
      <point x="220" y="375" type="curve" smooth="yes"/>
      <point x="171" y="375"/>
      <point x="176" y="375"/>
      <point x="142" y="375" type="curve" smooth="yes"/>
      <point x="108" y="375"/>
      <point x="73" y="375"/>
      <point x="49" y="375" type="curve" smooth="yes"/>
      <point x="-18" y="375"/>
      <point x="-18" y="465"/>
    </contour>
    <contour>
      <point x="49" y="307" type="curve" smooth="yes"/>
      <point x="84" y="307"/>
      <point x="120" y="307"/>
      <point x="142" y="307" type="curve" smooth="yes"/>
      <point x="193" y="307"/>
      <point x="188" y="307"/>
      <point x="220" y="307" type="curve" smooth="yes"/>
      <point x="258" y="307"/>
      <point x="287" y="307"/>
      <point x="312" y="307" type="curve" smooth="yes"/>
      <point x="380" y="307"/>
      <point x="380" y="217"/>
      <point x="312" y="217" type="curve" smooth="yes"/>
      <point x="275" y="217"/>
      <point x="245" y="217"/>
      <point x="220" y="217" type="curve" smooth="yes"/>
      <point x="172" y="217"/>
      <point x="176" y="217"/>
      <point x="142" y="217" type="curve" smooth="yes"/>
      <point x="109" y="217"/>
      <point x="73" y="217"/>
      <point x="49" y="217" type="curve" smooth="yes"/>
      <point x="-18" y="217"/>
      <point x="-18" y="307"/>
    </contour>
  </outline>
</glyph>
<glyph name="minus" format="2">
  <advance width="336"/>
  <unicode hex="2212"/>
  <outline>
    <contour>
      <point x="280" y="263" type="curve" smooth="yes"/>
      <point x="190" y="263"/>
      <point x="117" y="263"/>
      <point x="56" y="263" type="curve" smooth="yes"/>
      <point x="-12" y="263"/>
      <point x="-11" y="353"/>
      <point x="56" y="353" type="curve" smooth="yes"/>
      <point x="146" y="353"/>
      <point x="219" y="353"/>
      <point x="280" y="353" type="curve" smooth="yes"/>
      <point x="348" y="353"/>
      <point x="348" y="263"/>
    </contour>
  </outline>
</glyph>
<glyph name="divisionslash" format="2">
  <advance width="366"/>
  <unicode hex="2215"/>
  <outline>
    <contour>
      <point x="358" y="674" type="curve" smooth="yes"/>
      <point x="344" y="638"/>
      <point x="332" y="603"/>
      <point x="318" y="567" type="curve" smooth="yes"/>
      <point x="267" y="427"/>
      <point x="213" y="284"/>
      <point x="161" y="143" type="curve" smooth="yes"/>
      <point x="139" y="81"/>
      <point x="116" y="20"/>
      <point x="92" y="-45" type="curve" smooth="yes"/>
      <point x="70" y="-109"/>
      <point x="-15" y="-78"/>
      <point x="8" y="-15" type="curve" smooth="yes"/>
      <point x="30" y="48"/>
      <point x="53" y="109"/>
      <point x="77" y="175" type="curve" smooth="yes"/>
      <point x="127" y="311"/>
      <point x="181" y="453"/>
      <point x="234" y="599" type="curve" smooth="yes"/>
      <point x="248" y="635"/>
      <point x="260" y="670"/>
      <point x="274" y="706" type="curve" smooth="yes"/>
      <point x="299" y="769"/>
      <point x="382" y="737"/>
    </contour>
  </outline>
</glyph>
<glyph name="A" format="2">
  <advance width="461"/>
  <outline>
    <contour>
      <point x="194.7400015316096" y="70.12322428650944" type="curve" smooth="yes"/>
      <point x="203.89017429269632" y="82.25829231472957"/>
      <point x="214.30627195072012" y="94.88060810265392"/>
      <point x="223.43347433138257" y="115.92238223800234" type="curve" smooth="yes"/>
      <point x="229.95925402198753" y="130.96685880156318"/>
      <point x="235.61281201991082" y="152.58387535179523"/>
      <point x="241.59833774239166" y="174.30768325986267" type="curve" smooth="yes"/>
      <point x="256.9902702662247" y="230.17101105842718"/>
      <point x="296.2920118971616" y="268.0261804260349"/>
      <point x="351.31334512708946" y="268.0261804260349" type="curve" smooth="yes"/>
      <point x="442.5301199001541" y="268.0261804260349" type="line" smooth="yes"/>
      <point x="558.1085554544388" y="268.0261804260349"/>
      <point x="528.4017597188958" y="168.03463342412184"/>
      <point x="441.1282484867488" y="168.01309197979845" type="curve" smooth="yes"/>
      <point x="414.25377418816316" y="168.0064586384369"/>
      <point x="371.11803225050653" y="168.00000048738787"/>
      <point x="336.4641043376498" y="168.00000048738787" type="curve" smooth="yes"/>
      <point x="260.09657196950263" y="168.00000048738787" type="line" smooth="yes"/>
      <point x="157.78729364637215" y="168.00000048738787"/>
      <point x="195.12297247086735" y="204.36749661328673"/>
      <point x="232.82382237357533" y="353.28349214672966" type="curve" smooth="yes"/>
      <point x="247.34179738366032" y="410.6285840302196"/>
      <point x="233.84757636932108" y="495.2430410794176"/>
      <point x="256.38963459683373" y="577.255149613133" type="curve" smooth="yes"/>
      <point x="299.2902130766447" y="733.3352583119594"/>
      <point x="483.50248171691516" y="730.0614312108138"/>
      <point x="522.0595076314188" y="578.3413511213577" type="curve" smooth="yes"/>
      <point x="638.7467764274376" y="125.50257556618952" type="line" smooth="yes"/>
      <point x="651.8514466266901" y="73.90181264841004"/>
      <point x="642.3691312149929" y="43.992611690478256"/>
      <point x="636.776396726335" y="25.52747859893809" type="curve" smooth="yes"/>
      <point x="615.0356703018684" y="-46.25232924795226"/>
      <point x="519.3292598393479" y="-17.264694015330193"/>
      <point x="541.0699862638144" y="54.51511383156016" type="curve" smooth="yes"/>
      <point x="543.9444582538429" y="64.00555325281644"/>
      <point x="548.5798189626873" y="74.28499162682648"/>
      <point x="541.9100147258554" y="100.5497884843631" type="curve" smooth="yes"/>
      <point x="425.1402331769374" y="553.7109991300259" type="line" smooth="yes"/>
      <point x="411.45979550650515" y="607.5428767136142"/>
      <point x="368.03513698914037" y="606.1306836564207"/>
      <point x="352.8135612581715" y="550.7518221388525" type="curve" smooth="yes"/>
      <point x="334.60061010249177" y="484.489792654969"/>
      <point x="347.7341671006727" y="399.71657361796963"/>
      <point x="329.7653672289203" y="328.7409396906557" type="curve" smooth="yes"/>
      <point x="328.4290293360756" y="323.4624887221602"/>
      <point x="256.47013474685025" y="268.00000048738787"/>
      <point x="260.09657196950263" y="268.00000048738787" type="curve" smooth="yes"/>
      <point x="336.4641043376498" y="268.00000048738787" type="line" smooth="yes"/>
      <point x="378.6814159183796" y="268.00000048738787"/>
      <point x="408.36361038317693" y="268.0050078341371"/>
      <point x="441.10356580429107" y="268.0130889336243" type="curve" smooth="yes"/>
      <point x="443.07677426303337" y="268.01357597441773"/>
      <point x="445.14328789883007" y="168.02618042603487"/>
      <point x="442.5301199001541" y="168.02618042603487" type="curve" smooth="yes"/>
      <point x="351.31334512708946" y="168.02618042603487" type="line" smooth="yes"/>
      <point x="344.41779867010314" y="168.02618042603487"/>
      <point x="339.93483506223845" y="154.7457487222307"/>
      <point x="338.0058417145608" y="147.74467932852636" type="curve" smooth="yes"/>
      <point x="329.7622417433805" y="117.82543905657161"/>
      <point x="324.16222354639655" y="96.84832949027373"/>
      <point x="315.1745556683106" y="76.12823700115678" type="curve" smooth="yes"/>
      <point x="301.8191331764994" y="45.33876046339137"/>
      <point x="287.9744208280334" y="27.674319086444555"/>
      <point x="274.5853868173176" y="9.917622814745666" type="curve" smooth="yes"/>
      <point x="229.43118571349476" y="-49.96641614953532"/>
      <point x="149.58580042778675" y="10.239185322228451"/>
    </contour>
  </outline>
</glyph>
<glyph name="grave.cap" format="2">
  <advance width="288"/>
  <outline>
    <contour>
      <point x="136" y="763" type="curve" smooth="yes"/>
      <point x="71" y="869" type="line" smooth="yes"/>
      <point x="35" y="927"/>
      <point x="112" y="974"/>
      <point x="147" y="917" type="curve" smooth="yes"/>
      <point x="212" y="811" type="line" smooth="yes"/>
      <point x="248" y="753"/>
      <point x="171" y="706"/>
    </contour>
  </outline>
</glyph>
<glyph name="t" format="2">
  <advance width="259"/>
  <outline>
    <contour>
      <point x="435.0790850726508" y="97.70001056376766" type="curve" smooth="yes"/>
      <point x="455.92213911128437" y="62.883920151004"/>
      <point x="441.62224113471984" y="-8.975695247404085"/>
      <point x="352.58391784807503" y="-8.973816866974637" type="curve" smooth="yes"/>
      <point x="279.89296853748516" y="-8.972283355880277"/>
      <point x="229.7518272724674" y="50.31648608791492"/>
      <point x="229.73569670403248" y="181.02001031881397" type="curve" smooth="yes"/>
      <point x="229.68805912610412" y="567.0200044396978" type="line" smooth="yes"/>
      <point x="229.68753788741554" y="571.2435216604979"/>
      <point x="243.6542707102864" y="593.0172806391594"/>
      <point x="242.2143618349878" y="593.016925231013" type="curve" smooth="yes"/>
      <point x="232.67931579380704" y="593.0145717258019"/>
      <point x="181.66534487172808" y="534.3487442121898"/>
      <point x="181.17449593744897" y="519.3678596789539" type="curve" smooth="yes"/>
      <point x="181.08551374601143" y="516.6520914611875"/>
      <point x="257.2590924890914" y="545.0069775854092"/>
      <point x="261.312169384997" y="545.0069775854092" type="curve" smooth="yes"/>
      <point x="454.43169561503936" y="545.0069775854092"/>
      <point x="308.12972451035375" y="445.01417355880005"/>
      <point x="304.61846114579515" y="445.00204012020197" type="curve" smooth="yes"/>
      <point x="229.61890892957842" y="444.7428734422173"/>
      <point x="229.27335335893213" y="544.7422763971729"/>
      <point x="304.27290557514885" y="545.0014430751576" type="curve" smooth="yes"/>
      <point x="304.3262355229339" y="545.0016273608633"/>
      <point x="264.24531713861285" y="445.0069775854092"/>
      <point x="261.312169384997" y="445.0069775854092" type="curve" smooth="yes"/>
      <point x="145.81441527959097" y="445.0069775854092"/>
      <point x="78.6924655575404" y="445.2532186735056"/>
      <point x="81.22813007374782" y="522.6426040413728" type="curve" smooth="yes"/>
      <point x="83.97822990211102" y="606.5766316136121"/>
      <point x="188.76727838924467" y="693.0037361028809"/>
      <point x="242.18967915253006" y="693.016922184839" type="curve" smooth="yes"/>
      <point x="276.7924906235149" y="693.0254630871857"/>
      <point x="329.6755323468502" y="668.5287478403473"/>
      <point x="329.68805836456056" y="567.0323457812239" type="curve" smooth="yes"/>
      <point x="329.7356959424889" y="181.0323516603402" type="line" smooth="yes"/>
      <point x="329.7395636971032" y="149.6925287030397"/>
      <point x="335.1563407484633" y="91.02655081291749"/>
      <point x="352.58602747888546" y="91.02618311077265" type="curve" smooth="yes"/>
      <point x="355.0925355624922" y="91.026130232691"/>
      <point x="349.8659197231308" y="45.354797496603126"/>
      <point x="349.2791691925002" y="46.334901443285034" type="curve" smooth="yes"/>
      <point x="310.75533735213827" y="110.68483835339796"/>
      <point x="396.55525323228886" y="162.0499474738806"/>
    </contour>
  </outline>
</glyph>
